<svg version="1.0" xmlns="http://www.w3.org/2000/svg"
 width="600.000000pt" height="300.000000pt" viewBox="238 543 1000 540"
 preserveAspectRatio="xMidYMid meet">

<g transform="translate(0.000000,1632.000000) scale(0.100000,-0.100000)"
fill="none" stroke="none">
<path fill="#F0D84E" transform="translate(-11000, 0)" d="M18526 10753 c-21 -76 -47 -167 -57 -203 -10 -36 -26 -94 -37 -130
-11 -36 -56 -198 -101 -360 -45 -162 -86 -304 -91 -315 -12 -28 -73 -240 -110
-380 -8 -31 -307 -1072 -386 -1345 -25 -85 -56 -193 -69 -240 -12 -47 -48
-173 -80 -280 -56 -191 -90 -311 -125 -440 -10 -36 -30 -105 -45 -155 -14 -49
-35 -124 -46 -165 -11 -41 -45 -160 -75 -265 -31 -104 -80 -275 -111 -380 -30
-104 -63 -217 -73 -250 -10 -33 -30 -103 -45 -155 -14 -52 -30 -106 -35 -120
-5 -14 -11 -37 -14 -52 l-6 -28 434 0 434 0 25 83 c14 45 47 156 72 247 26 91
65 228 86 305 22 77 62 219 88 315 27 96 67 236 89 310 22 74 90 313 152 530
61 217 124 438 140 490 36 115 74 246 105 360 13 47 42 150 65 230 46 157 49
169 78 280 22 83 42 152 97 340 43 149 192 673 241 850 19 69 50 175 69 235
19 61 59 198 89 305 30 107 73 260 95 340 23 80 41 153 41 163 0 16 -30 17
-428 17 l-427 0 -39 -137z"/>
<path fill="#6cc24a" transform="translate(-11000, 0)" d="M19960 9652 l0 -468 38 -13 c20 -8 55 -21 77 -31 46 -20 209 -90 310
-133 39 -16 98 -42 133 -58 35 -16 65 -29 68 -29 4 0 45 -17 439 -188 127 -55
280 -121 340 -146 61 -26 164 -71 230 -101 66 -29 170 -75 230 -100 61 -26
124 -53 140 -61 17 -8 90 -40 163 -72 74 -32 135 -62 135 -66 2 -8 -123 -66
-328 -151 -67 -27 -273 -116 -365 -156 -14 -6 -32 -15 -40 -20 -8 -5 -22 -12
-30 -16 -8 -3 -78 -33 -155 -66 -77 -33 -239 -102 -360 -153 -121 -52 -228
-98 -237 -104 -9 -5 -70 -32 -136 -59 -66 -28 -151 -64 -188 -82 -117 -54
-238 -106 -263 -114 -14 -4 -56 -22 -95 -40 -39 -18 -79 -35 -88 -38 -17 -6
-18 -37 -18 -467 0 -253 4 -460 9 -460 9 0 255 106 340 146 29 14 103 47 165
74 153 66 362 159 541 240 83 37 238 107 345 155 107 48 228 102 268 121 40
19 75 34 78 34 3 0 58 24 122 54 64 29 140 64 167 76 28 12 122 55 210 95 88
40 273 123 410 185 290 131 478 217 623 285 l102 49 0 411 0 412 -97 45 c-54
25 -190 87 -303 138 -343 154 -403 181 -465 211 -94 44 -627 286 -760 344 -66
29 -169 76 -230 104 -60 29 -153 71 -205 93 -52 22 -133 58 -180 80 -47 22
-146 67 -220 100 -74 33 -139 63 -145 67 -5 4 -26 14 -45 21 -19 8 -73 31
-120 53 -47 21 -184 84 -305 139 -121 55 -233 106 -249 114 -59 29 -56 55 -56
-454z"/>
<path fill="#61DBFB" d="M5692 10070 c-46 -22 -86 -40 -88 -40 -5 0 -24 -9 -224 -100 -74 -34
-160 -73 -190 -87 -30 -14 -98 -44 -150 -68 -240 -109 -532 -240 -600 -270
-103 -44 -452 -200 -525 -235 -71 -33 -235 -108 -430 -195 -133 -59 -186 -84
-342 -156 -38 -18 -111 -51 -163 -74 -125 -56 -391 -175 -460 -207 -30 -14
-63 -28 -72 -31 -17 -6 -18 -35 -18 -420 l0 -415 53 -22 c50 -22 128 -57 232
-105 28 -13 70 -32 95 -43 152 -66 439 -195 585 -262 215 -98 353 -161 469
-212 50 -22 141 -62 201 -90 61 -27 124 -56 140 -63 17 -7 119 -54 228 -104
109 -50 200 -91 202 -91 3 0 46 -20 97 -44 143 -67 228 -106 232 -106 2 0 42
-17 88 -39 45 -21 161 -73 256 -115 96 -43 242 -109 325 -147 84 -39 158 -73
165 -76 10 -4 12 90 10 463 l-3 469 -135 58 c-74 32 -189 82 -255 112 -66 29
-165 72 -220 96 -55 23 -199 84 -320 136 -195 85 -545 233 -738 314 -38 16
-83 35 -100 43 -167 74 -234 103 -372 161 -88 37 -164 71 -168 75 -5 4 13 16
40 26 26 9 53 21 58 24 6 4 102 47 215 95 113 48 261 112 330 142 139 61 128
56 330 143 80 34 163 70 185 80 43 19 296 126 615 260 107 45 209 88 225 95
17 8 93 41 170 73 l140 60 3 466 c2 439 1 466 -15 466 -10 0 -56 -18 -101 -40z"/>
</g>
</svg>
